<?xml version="1.0" standalone="no"?>
<!DOCTYPE svg PUBLIC "-//W3C//DTD SVG 20010904//EN"
 "http://www.w3.org/TR/2001/REC-SVG-20010904/DTD/svg10.dtd">
<svg version="1.0" xmlns="http://www.w3.org/2000/svg"
 width="1440.000000pt" height="1440.000000pt" viewBox="0 0 1440.000000 1440.000000"
 preserveAspectRatio="xMidYMid meet">
<metadata>
Created by potrace 1.11, written by Peter Selinger 2001-2013
</metadata>
<g transform="translate(0.000000,1440.000000) scale(0.100000,-0.100000)"
fill="#000000" stroke="none">
<path d="M0 7200 l0 -7200 7200 0 7200 0 0 7200 0 7200 -7200 0 -7200 0 0
-7200z m10220 5625 c16 -227 16 -814 1 -1050 -93 -1441 -472 -2607 -1129
-3480 -455 -604 -1059 -1067 -1760 -1348 l-134 -54 194 -7 c1244 -44 2350
-405 3121 -1019 491 -391 804 -869 899 -1375 32 -169 32 -456 0 -627 -131
-694 -658 -1311 -1514 -1773 -296 -160 -742 -329 -1123 -425 -2168 -550 -4590
92 -5509 1458 -253 376 -372 830 -326 1240 69 603 440 1166 1063 1613 760 545
1808 866 2969 908 l187 7 -122 49 c-775 310 -1433 841 -1903 1538 -550 815
-879 1851 -983 3095 -21 251 -33 638 -28 886 7 280 25 580 36 592 4 4 108
-199 231 -450 123 -252 801 -1637 1507 -3078 l1283 -2619 99 204 c54 113 344
705 643 1315 299 611 933 1905 1408 2876 766 1565 866 1763 872 1735 3 -17 12
-112 18 -211z"/>
<path d="M5232 5259 c-105 -52 -183 -214 -213 -444 -31 -237 31 -526 138 -645
57 -63 88 -80 151 -80 119 0 223 151 268 386 25 136 16 378 -20 497 -33 112
-66 177 -119 234 -69 75 -128 90 -205 52z"/>
<path d="M8993 5264 c-80 -39 -152 -154 -195 -309 -19 -69 -22 -106 -22 -270
-1 -167 2 -200 22 -273 57 -211 148 -322 263 -322 255 0 383 628 205 1006 -71
151 -176 216 -273 168z"/>
</g>
</svg>
